# xmcd CD database file
#
# Track frame offsets:
#	150
#	21438
#	39587
#	57046
#	73501
#
# Disc length: 1188 seconds
#
# Revision: 0
# Processed by: cddbd v1.5.2PL0 Copyright (c) Steve Scherf et al.
# Submitted via: CDex 1.51
#
DISCID=3d04a205
DTITLE=Ashton Taylor - Ashton Taylor
DYEAR=2013
DGENRE=Country
TTITLE0=Turning Grey
TTITLE1=Without Her
TTITLE2=Away
TTITLE3=Jesse
TTITLE4=Folsom Prison Blues
EXTD=YEAR: 2013
EXTT0=
EXTT1=
EXTT2=
EXTT3=
EXTT4=
PLAYORDER=
